<svg xmlns="http://www.w3.org/2000/svg" width="54" height="20" fill="none"><path fill="#fff" d="M52.21 19.917c-1.157 0-1.818-.72-1.818-1.635 0-.914.661-1.634 1.818-1.634s1.79.72 1.79 1.634c0 .915-.633 1.635-1.79 1.635Z"/><path fill="#fff" d="M50.763 19.723h-3.25l-3.636-5.125-3.663 5.125H36.99l5.206-7.424-4.93-6.87h3.222l3.388 4.765 3.36-4.765h3.25l-4.93 6.87 5.206 7.424Z"/><path fill="#fff" d="M30.089 20c-3.305 0-5.096-1.662-5.096-4.321 0-2.133 1.295-3.823 4.82-4.128l2.755-.221c1.68-.167 2.175-.554 2.175-1.469 0-1.634-.936-2.603-3.002-2.603-1.928 0-2.974.83-3.112 2.603h-2.865c0-2.88 1.763-4.709 5.95-4.709 4.159 0 5.949 1.829 5.949 4.71v6.205c0 1.939.165 3.185.44 3.656h-2.616c-.44-.554-.606-1.136-.606-2.465C34.11 19.086 32.54 20 30.09 20Zm.798-2.022c2.507 0 3.856-1.967 3.856-4.322v-1.218c-.303.387-1.074.61-2.175.692l-1.818.166c-2.038.167-2.837 1.025-2.837 2.189 0 1.468.881 2.493 2.974 2.493Zm-6.447 1.745h-2.919V0h2.92v19.723ZM14.288 20c-4.517 0-7.023-2.88-7.023-7.424 0-4.404 2.368-7.424 6.858-7.424s6.858 3.075 6.858 7.175c0 .277-.028.526-.055.803H10.184c.083 3.38 1.68 4.848 4.104 4.848 2.01 0 3.278-1.053 3.718-2.687h2.672c-.633 2.908-2.7 4.709-6.39 4.709Zm-.165-12.825c-2.204 0-3.636 1.33-3.939 4.016h7.877c-.302-2.687-1.735-4.016-3.938-4.016Z"/><path fill="#fff" d="M2.92 19.723H0v-9.81l2.782-4.484v3.297c.743-2.521 2.01-3.463 4.076-3.463.386 0 .937.083 1.295.166v2.577L6.748 7.95c-2.314 0-3.828 1.8-3.828 4.986v6.787Z"/></svg>