<svg xmlns="http://www.w3.org/2000/svg" width="51" height="22" fill="none"><path fill="#fff" d="M44.218 19.176c-4.332 0-6.756-2.732-6.756-6.973 0-4.215 2.424-6.973 6.756-6.973C48.576 5.23 51 7.988 51 12.203c0 4.241-2.424 6.973-6.782 6.973Zm0-2.55c2.218 0 3.456-1.457 3.456-4.423S46.436 7.78 44.218 7.78c-2.192 0-3.43 1.457-3.43 4.423s1.238 4.423 3.43 4.423Zm-7.624 2.29h-3.326V5.49h3.326v13.426Zm-1.65-15.43c-1.238 0-1.934-.754-1.934-1.743C33.01.755 33.706 0 34.944 0s1.908.755 1.908 1.743c0 .989-.67 1.744-1.908 1.744Zm-3.061 15.43h-3.326V.39h3.326v18.526Zm-10.685.26c-4.333 0-6.757-2.732-6.757-6.973 0-4.137 2.321-6.973 6.602-6.973 4.306 0 6.627 2.862 6.627 6.817 0 .286-.025.546-.051.858h-9.851c.103 2.732 1.392 3.981 3.43 3.981 1.65 0 2.733-.832 3.12-2.211h3.069c-.568 2.758-2.605 4.501-6.19 4.501ZM21.043 7.52c-1.83 0-2.991 1.066-3.275 3.2h6.576c-.284-2.134-1.47-3.2-3.301-3.2Z"/><path stroke="#fff" stroke-width="3" d="M10.521 3.738 3 11.869 10.521 20"/></svg>