<svg xmlns="http://www.w3.org/2000/svg" width="82" height="20" fill="none"><path fill="#fff" d="M75.564 17.627c-4.343 0-6.752-2.774-6.752-7.147 0-4.24 2.277-7.147 6.593-7.147 4.317 0 6.594 2.96 6.594 6.907 0 .267-.026.507-.053.773H71.62c.079 3.254 1.615 4.667 3.945 4.667 1.933 0 3.152-1.013 3.575-2.587h2.569c-.61 2.8-2.595 4.534-6.144 4.534ZM75.405 5.28c-2.118 0-3.495 1.28-3.786 3.867h7.573c-.291-2.587-1.668-3.867-3.787-3.867Z"/><path fill="#fff" d="M62.885 17.627c-4.29 0-5.932-1.894-5.932-4.534h2.701c.133 1.574.821 2.64 3.257 2.64 2.384 0 3.099-1.04 3.099-2.213 0-1.093-.795-1.653-2.092-1.84l-2.516-.373c-2.86-.4-4.078-1.414-4.078-3.707 0-2.373 1.483-4.267 5.561-4.267 4.078 0 5.561 1.894 5.561 4.32h-2.701c-.132-1.28-.556-2.426-2.887-2.426-1.986 0-2.727.826-2.727 2.16 0 1.12.636 1.52 1.695 1.68l2.515.373c2.781.4 4.476 1.413 4.476 3.92 0 2.373-1.642 4.267-5.932 4.267Zm-10.652-.267h-2.807V3.6H52.1v3.173c.715-2.426 1.933-3.333 3.92-3.333.37 0 .9.08 1.244.16v2.48l-1.35-.053c-2.225 0-3.681 1.733-3.681 4.8v6.533Zm-9.762.267c-4.342 0-6.752-2.774-6.752-7.147 0-4.24 2.277-7.147 6.594-7.147 4.316 0 6.593 2.96 6.593 6.907 0 .267-.026.507-.053.773H38.526c.08 3.254 1.615 4.667 3.945 4.667 1.934 0 3.152-1.013 3.576-2.587h2.568c-.609 2.8-2.595 4.534-6.144 4.534ZM42.313 5.28c-2.119 0-3.496 1.28-3.787 3.867h7.573c-.29-2.587-1.668-3.867-3.786-3.867ZM31.858 17.36h-3.39L23.279 3.6h2.913l3.973 11.253L34.108 3.6h2.94l-5.19 13.76Z"/><path fill="#fff" fill-rule="evenodd" d="M5.7 1.851 16.43 13.82l-4.936 4.33L.764 6.18 5.7 1.85Z" clip-rule="evenodd"/><path fill="#fff" fill-rule="evenodd" d="m18.634 7.653-6.855 4.486L14.685 1.75l3.949 5.902Z" clip-rule="evenodd"/></svg>