<svg xmlns="http://www.w3.org/2000/svg" width="68" height="20" fill="none"><path fill="#fff" fill-rule="evenodd" d="M14.68 8.47H9.554V1.944h5.128V8.47ZM7.2 18.258H2.073v-6.525H7.2v6.525Z" clip-rule="evenodd"/><path fill="#fff" fill-rule="evenodd" d="M5.54 1.851 15.97 13.82l-4.798 4.33L.742 6.18 5.54 1.85Z" clip-rule="evenodd"/><path fill="#fff" d="M62.789 17.584H59.88V3.27h2.77v3.3c.741-2.524 2.003-3.467 4.06-3.467.384 0 .932.083 1.289.167v2.58L66.6 5.793c-2.304 0-3.812 1.803-3.812 4.993v6.797Zm-10.111.277c-4.497 0-6.993-2.885-6.993-7.434 0-4.411 2.358-7.435 6.829-7.435 4.47 0 6.83 3.08 6.83 7.185 0 .277-.028.527-.056.805H48.593c.082 3.384 1.673 4.854 4.087 4.854 2.002 0 3.263-1.054 3.702-2.69h2.66c-.63 2.912-2.687 4.715-6.362 4.715Zm-.164-12.844c-2.194 0-3.62 1.332-3.922 4.023h7.844c-.302-2.691-1.728-4.023-3.922-4.023Z"/><path fill="#fff" d="M39.03 17.861c-4.498 0-6.994-2.885-6.994-7.434 0-4.411 2.359-7.435 6.83-7.435 4.47 0 6.829 3.08 6.829 7.185 0 .277-.028.527-.055.805H34.943c.083 3.384 1.674 4.854 4.087 4.854 2.002 0 3.264-1.054 3.703-2.69h2.66c-.63 2.912-2.688 4.715-6.363 4.715Zm-.165-12.844c-2.194 0-3.62 1.332-3.922 4.023h7.845c-.302-2.691-1.728-4.023-3.922-4.023Z"/><path fill="#fff" d="M32.174 17.584H20.93v-1.97l7.598-10.236h-7.324V3.27H31.9v1.97l-7.597 10.236h7.871v2.108Z"/></svg>