<svg xmlns="http://www.w3.org/2000/svg" width="87" height="20" fill="none"><path fill="#fff" d="M87 17.58h-3.28V7.607c0-2.416-.865-3.654-3.124-3.654-2.382 0-3.928 1.796-3.928 4.707v8.918h-3.28V1.6h3.125v2.787c.866-1.858 2.413-3.097 5.073-3.097C85.236 1.29 87 3.148 87 7.02v10.56Zm-22.746.309c-5.074 0-7.889-3.22-7.889-8.3 0-5.078 2.815-8.299 7.889-8.299 5.073 0 7.888 3.22 7.888 8.3 0 5.078-2.815 8.299-7.888 8.299Zm0-2.508c2.938 0 4.609-1.92 4.609-5.791 0-3.84-1.67-5.791-4.61-5.791-2.938 0-4.609 1.95-4.609 5.79 0 3.872 1.67 5.792 4.61 5.792Z"/><path fill="#fff" d="M57.619 17.58h-3.65l-4.084-5.73-4.114 5.73h-3.62l5.847-8.3-5.537-7.68h3.62l3.804 5.326L53.659 1.6h3.65l-5.537 7.68 5.847 8.3Z"/><path fill="#fff" d="M35.884 17.889c-5.073 0-7.888-3.22-7.888-8.3 0-4.923 2.66-8.299 7.703-8.299 5.042 0 7.703 3.438 7.703 8.02 0 .31-.031.59-.062.899H31.275c.093 3.778 1.887 5.42 4.61 5.42 2.258 0 3.68-1.177 4.176-3.005h3c-.711 3.252-3.031 5.265-7.177 5.265ZM35.7 3.551c-2.475 0-4.084 1.486-4.424 4.49h8.848c-.34-3.004-1.95-4.49-4.424-4.49ZM19.979 0l-5.156 4.516L0 0l14.823 20 5.156-4.516V0Z"/></svg>