<svg xmlns="http://www.w3.org/2000/svg" width="114" height="20" fill="none"><path fill="#fff" d="M91.71 20c-4.982 0-7.18-2.082-7.18-5.161h4.366c.176 1.466.88 2.258 2.872 2.258 1.875 0 2.637-.733 2.637-1.672 0-.85-.703-1.32-1.905-1.495l-2.402-.323c-3.81-.557-5.157-1.818-5.157-4.457 0-2.786 2.05-4.868 6.768-4.868 4.717 0 6.768 2.082 6.768 4.926h-4.365c-.147-1.114-.586-2.023-2.461-2.023-1.612 0-2.227.645-2.227 1.583 0 .822.44 1.203 1.435 1.35l2.374.322c3.604.528 5.655 1.642 5.655 4.692 0 2.786-2.198 4.868-7.179 4.868Zm-10.17-.117c-3.692 0-4.864-1.173-4.864-4.78v-7.39h-2.285V4.575h2.285V0h4.454v4.575h3.106v3.138H81.13v7.566c0 1.055.469 1.436 1.524 1.436h1.582v2.992c-.674.058-1.993.176-2.696.176Z"/><path fill="#fff" d="M67.488 20c-5.01 0-7.853-3.138-7.853-7.86 0-4.72 2.842-7.858 7.853-7.858 5.04 0 7.383 3.079 7.383 6.217h-4.22c-.233-1.672-1.171-2.845-3.163-2.845-2.14 0-3.37 1.437-3.37 4.487s1.23 4.487 3.37 4.487c1.699 0 2.9-.85 3.164-2.962h4.22c0 3.43-2.52 6.334-7.384 6.334Zm-17.711 0c-3.604 0-5.508-1.789-5.508-4.575 0-2.346 1.348-4.252 5.215-4.575l3.223-.263c1.26-.118 1.612-.499 1.612-1.144 0-1.29-.791-2.024-2.315-2.024-1.494 0-2.314.675-2.461 2.024h-4.454c0-3.138 1.993-5.161 6.857-5.161 4.863 0 6.856 2.023 6.856 5.16v6.394c0 2.053.175 3.372.468 3.87h-4.072c-.41-.527-.645-1.113-.645-2.11-.85 1.583-2.256 2.404-4.776 2.404Zm1.319-2.991c2.05 0 3.223-1.554 3.223-3.402v-.85c-.205.234-.791.38-1.612.469l-1.64.117c-1.67.147-2.315.821-2.315 1.76 0 1.143.703 1.906 2.344 1.906Zm-11.488 2.698h-4.482V4.575h4.248V7.83c.762-2.64 2.08-3.46 4.073-3.46.41 0 1.113.087 1.406.205v3.9l-1.582-.03c-2.227 0-3.663 1.584-3.663 4.34v6.922Zm-8.059.176c-3.692 0-4.864-1.173-4.864-4.78v-7.39h-2.286V4.575h2.286V0h4.453v4.575h3.106v3.138h-3.106v7.566c0 1.055.47 1.436 1.524 1.436h1.582v2.992c-.674.058-1.992.176-2.695.176Z"/><path fill="#fff" d="M21.82 19.883c-3.693 0-4.865-1.173-4.865-4.78v-7.39H14.67V4.575h2.285V0h4.454v4.575h3.106v3.138h-3.106v7.566c0 1.055.469 1.436 1.523 1.436h1.583v2.992c-.674.058-1.993.176-2.696.176ZM5.508 20C1.904 20 0 18.211 0 15.425c0-2.346 1.348-4.252 5.215-4.575l3.223-.263c1.26-.118 1.612-.499 1.612-1.144 0-1.29-.791-2.024-2.315-2.024-1.494 0-2.315.675-2.461 2.024H.82c0-3.138 1.993-5.161 6.857-5.161 4.863 0 6.856 2.023 6.856 5.16v6.394c0 2.053.176 3.372.469 3.87h-4.073c-.41-.527-.645-1.113-.645-2.11C9.434 19.178 8.028 20 5.508 20Zm1.319-2.991c2.05 0 3.223-1.554 3.223-3.402v-.85c-.205.234-.791.38-1.612.469l-1.64.117c-1.67.147-2.315.821-2.315 1.76 0 1.143.703 1.906 2.344 1.906Z"/><path fill="#fff" fill-rule="evenodd" d="M108.655 19.03c2.514 0 4.551-1.974 4.551-4.41 0-2.434-2.037-4.408-4.551-4.408-2.513 0-4.551 1.974-4.551 4.409 0 2.435 2.038 4.41 4.551 4.41Zm0 .769c2.952 0 5.345-2.318 5.345-5.178s-2.393-5.178-5.345-5.178-5.344 2.318-5.344 5.178 2.392 5.178 5.344 5.178Z" clip-rule="evenodd"/><path fill="#fff" d="M107.898 14.885v-.513h.986c.197 0 .349-.048.457-.145a.535.535 0 0 0 .167-.416.542.542 0 0 0-.162-.4c-.107-.107-.26-.161-.456-.161h-.992v-.54h1.019c.246 0 .461.049.647.146.185.094.328.223.428.389.104.161.156.347.156.555 0 .22-.052.41-.156.572-.1.162-.243.288-.428.378-.186.09-.401.135-.647.135h-1.019Zm-.44 1.603V12.71h.641v3.778h-.641Zm2.139 0-1.365-1.64.596-.211 1.577 1.85h-.808Z"/></svg>